<svg xmlns="http://www.w3.org/2000/svg" xmlns:xlink="http://www.w3.org/1999/xlink" width="500" zoomAndPan="magnify" viewBox="0 0 375 374.999991" height="500" preserveAspectRatio="xMidYMid meet" version="1.0"><defs><clipPath id="5a5065d3f6"><path d="M 167 143.386719 L 225.785156 143.386719 L 225.785156 216 L 167 216 Z M 167 143.386719 " clip-rule="nonzero"/></clipPath><clipPath id="9a250cb322"><path d="M 149.285156 159 L 208 159 L 208 231.886719 L 149.285156 231.886719 Z M 149.285156 159 " clip-rule="nonzero"/></clipPath></defs><g clip-path="url(#5a5065d3f6)"><path fill="#ffffff" d="M 178.605469 160.367188 L 187.496094 155.234375 L 225.691406 177.289062 L 225.691406 165.441406 L 187.496094 143.386719 L 167.324219 155.035156 L 167.324219 167.386719 L 215.429688 195.15625 L 215.429688 215.472656 L 225.691406 209.550781 L 225.691406 187.558594 Z M 178.605469 160.367188 " fill-opacity="1" fill-rule="nonzero"/></g><g clip-path="url(#9a250cb322)"><path fill="#ffffff" d="M 196.386719 214.621094 L 187.496094 219.757812 L 149.300781 197.703125 L 149.300781 209.550781 L 187.496094 231.605469 L 207.664062 219.957031 L 207.664062 207.601562 L 159.558594 179.835938 L 159.558594 159.515625 L 149.300781 165.441406 L 149.300781 187.429688 Z M 196.386719 214.621094 " fill-opacity="1" fill-rule="nonzero"/></g></svg>